<?xml version="1.0" standalone="no"?>
<!DOCTYPE svg PUBLIC "-//W3C//DTD SVG 20010904//EN"
 "http://www.w3.org/TR/2001/REC-SVG-20010904/DTD/svg10.dtd">
<svg version="1.0" xmlns="http://www.w3.org/2000/svg"
 width="211.000000pt" height="211.000000pt" viewBox="0 0 211.000000 211.000000"
 preserveAspectRatio="xMidYMid meet">
<metadata>
Created by potrace 1.14, written by Peter Selinger 2001-2017
</metadata>
<g transform="translate(0.000000,211.000000) scale(0.100000,-0.100000)"
fill="#000000" stroke="none">
<path d="M633 1689 c-16 -16 -5 -39 17 -39 25 0 35 18 20 35 -15 18 -22 19
-37 4z m32 -8 c7 -12 -12 -24 -25 -16 -11 7 -4 25 10 25 5 0 11 -4 15 -9z"/>
<path d="M865 1590 c21 -22 41 -40 44 -40 3 0 -13 18 -34 40 -21 22 -41 40
-44 40 -3 0 13 -18 34 -40z"/>
<path d="M975 1588 l-40 -43 43 40 c23 21 42 40 42 42 0 8 -9 0 -45 -39z"/>
<path d="M919 1570 c-3 -17 -12 -26 -29 -29 l-25 -4 25 -6 c15 -4 27 -16 31
-31 l6 -25 4 25 c3 16 13 26 29 31 l25 6 -25 4 c-16 3 -26 13 -31 29 l-6 25
-4 -25z"/>
<path d="M865 1478 l-40 -43 43 40 c23 21 42 40 42 42 0 8 -9 0 -45 -39z"/>
<path d="M970 1485 c19 -19 36 -35 39 -35 3 0 -10 16 -29 35 -19 19 -36 35
-39 35 -3 0 10 -16 29 -35z"/>
<path d="M610 1478 c0 -21 3 -28 8 -20 6 8 19 -20 36 -78 16 -50 26 -93 23
-97 -10 -10 -57 46 -58 69 -1 16 -3 18 -6 6 -7 -26 24 -75 51 -82 19 -5 26
-15 34 -53 6 -26 10 -49 9 -49 -1 -1 -33 27 -71 63 -63 60 -69 70 -73 112 -7
77 -12 91 -32 91 -29 0 -33 -27 -10 -63 12 -17 18 -23 14 -12 -15 40 -17 65
-6 65 12 0 24 -40 19 -67 -5 -26 -21 -22 -61 13 -63 58 -129 52 -96 -8 7 -13
12 -31 10 -41 -1 -9 5 -20 13 -23 9 -3 16 -15 16 -25 0 -30 26 -33 77 -11 30
13 53 17 63 12 24 -13 130 -124 153 -160 l21 -32 -25 7 c-13 4 -34 18 -47 31
-39 41 -95 44 -177 10 -53 -23 -33 -34 45 -26 l65 7 -55 2 c-64 2 -51 17 24
27 35 5 52 2 73 -12 l28 -19 -35 -6 -35 -6 33 -2 c34 -1 40 -9 20 -29 -18 -18
-74 -14 -120 8 -23 11 -44 18 -46 15 -3 -3 15 -14 39 -25 58 -26 107 -26 136
2 19 18 28 20 55 12 26 -8 40 -22 65 -69 18 -33 33 -56 33 -52 0 10 -47 102
-75 147 -30 46 -52 164 -35 185 30 36 8 112 -51 180 -39 43 -49 44 -49 3z m86
-76 c18 -39 21 -89 5 -105 -6 -6 -13 4 -20 29 -6 22 -17 62 -26 89 -8 28 -15
52 -15 54 0 13 41 -37 56 -67z m-213 -34 c47 -38 37 -57 -19 -33 -46 19 -74
43 -74 63 0 21 46 7 93 -30z m-3 -51 l35 -12 -38 -3 c-37 -3 -67 10 -67 30 0
6 8 7 18 3 9 -4 33 -12 52 -18z m73 6 c9 -9 -13 -34 -24 -27 -14 8 -11 34 4
34 8 0 17 -3 20 -7z m-57 -48 c-26 -19 -56 -19 -56 0 0 11 11 15 38 15 35 -1
36 -2 18 -15z"/>
<path d="M1252 1425 c-7 -14 -22 -29 -34 -34 l-22 -8 22 -12 c12 -6 28 -24 36
-39 10 -18 15 -22 16 -10 0 9 15 28 33 42 24 19 27 26 14 26 -9 0 -26 14 -36
30 l-18 30 -11 -25z m31 -62 c-17 -17 -19 -17 -36 0 -18 18 -18 20 -1 38 17
19 18 19 36 -1 18 -19 18 -20 1 -37z"/>
<path d="M450 1433 c0 -5 11 -9 25 -9 14 -1 22 2 19 7 -6 11 -44 12 -44 2z"/>
<path d="M980 1338 c-34 -13 -35 -15 -36 -66 l-1 -52 4 50 c4 48 5 50 44 60
22 6 57 10 77 8 l37 -3 5 -165 6 -165 2 163 c1 89 5 162 10 162 20 -1 31 -19
35 -60 l4 -45 1 47 c2 39 -2 49 -19 59 -32 17 -129 21 -169 7z"/>
<path d="M1494 1335 c-4 -9 -2 -21 4 -27 15 -15 44 -1 40 19 -4 23 -36 29 -44
8z m36 -10 c0 -8 -7 -15 -15 -15 -8 0 -15 7 -15 15 0 8 7 15 15 15 8 0 15 -7
15 -15z"/>
<path d="M1484 1215 c-4 -8 -15 -15 -25 -15 -31 0 -34 -29 -11 -95 l22 -61
-23 -49 c-13 -28 -27 -57 -30 -65 -6 -17 -11 30 -8 70 1 14 -1 22 -4 18 -4 -4
-20 19 -36 50 -15 31 -26 58 -24 60 7 7 27 -10 46 -42 10 -17 19 -25 19 -17 0
16 -85 101 -100 101 -17 0 -11 -18 14 -45 26 -28 72 -132 63 -141 -10 -11 -47
7 -58 28 -6 11 -15 41 -20 67 l-8 46 3 -49 c4 -58 32 -100 69 -104 20 -2 27
-9 27 -25 0 -12 3 -33 7 -46 5 -20 10 -11 33 50 30 84 47 98 125 100 l50 2
-50 6 -50 6 48 22 c59 27 98 18 65 -15 -9 -9 -9 -12 0 -12 21 0 27 32 9 45
-13 9 -15 21 -10 45 6 33 6 33 -25 27 -20 -4 -32 -2 -36 6 -2 7 -5 3 -6 -8 0
-11 -15 -36 -32 -55 l-30 -35 6 40 c8 43 38 92 55 88 6 -2 11 2 11 7 0 14 -23
12 -39 -2 -11 -10 -14 -10 -18 0 -6 17 -22 15 -29 -3z m21 -41 c-3 -20 -11
-48 -16 -62 -9 -23 -11 -24 -25 -10 -18 18 -24 71 -9 78 6 3 13 -15 16 -40 l6
-45 1 42 c2 49 10 73 24 73 6 0 8 -14 3 -36z m115 -17 c0 -18 -39 -53 -72 -66
-37 -14 -35 -3 8 42 37 38 64 48 64 24z m-110 -93 c0 -14 -21 -19 -33 -7 -9 9
13 34 24 27 5 -3 9 -12 9 -20z"/>
<path d="M1170 1050 l0 -130 -115 0 -114 0 -4 128 -3 127 -2 -131 c-2 -142 -1
-147 51 -137 27 5 27 5 27 -56 l0 -61 -90 0 -90 0 0 -193 c0 -175 2 -196 18
-210 16 -15 45 -17 196 -17 180 0 216 6 216 38 0 13 -3 12 -16 -6 -15 -21 -21
-22 -194 -22 -149 0 -181 3 -194 16 -13 13 -16 46 -16 200 l0 184 90 0 90 0 0
65 0 65 30 0 30 0 0 -64 0 -65 90 -3 c50 -2 90 0 90 5 0 4 -38 7 -85 7 l-85 0
0 60 c0 52 2 60 19 60 10 0 21 -9 24 -20 3 -13 14 -20 31 -20 14 0 29 -6 33
-14 5 -10 29 -16 68 -18 l60 -3 3 -261 c2 -213 0 -263 -12 -273 -9 -8 -89 -11
-277 -9 l-264 3 0 270 0 270 63 3 c46 2 62 7 62 17 0 10 10 15 30 15 17 0 30
4 30 9 0 12 -53 1 -66 -15 -6 -7 -36 -14 -70 -16 l-59 -3 -3 -269 c-2 -190 1
-273 9 -282 16 -19 538 -21 557 -2 17 17 17 529 0 546 -7 7 -35 12 -64 12 -36
0 -54 4 -57 14 -3 8 -18 16 -33 18 -33 4 -45 28 -15 28 20 0 21 5 21 135 0 74
-2 135 -5 135 -3 0 -5 -58 -5 -130z"/>
<path d="M1584 969 c-27 -6 -63 -28 -104 -64 -43 -37 -66 -51 -71 -43 -8 13
-24 -94 -16 -114 3 -7 6 5 6 28 1 31 8 47 30 68 28 27 30 27 55 11 33 -22 107
-16 145 12 30 23 71 80 71 99 0 16 -52 17 -116 3z m90 -15 c12 -32 -40 -85
-97 -99 -32 -8 -97 2 -97 15 0 5 37 20 83 34 45 14 89 31 97 37 12 9 11 10 -5
4 -11 -4 -53 -18 -94 -31 l-74 -23 24 25 c39 42 151 68 163 38z"/>
<path d="M490 907 c0 -9 -14 -26 -30 -36 l-30 -18 25 -11 c14 -7 29 -22 34
-34 l8 -22 12 22 c6 12 24 28 39 36 18 10 22 15 10 16 -9 0 -28 15 -42 33 -19
24 -26 27 -26 14z m28 -34 c16 -17 16 -19 -1 -36 -18 -18 -20 -18 -38 -1 -18
16 -18 18 -3 36 21 22 20 22 42 1z"/>
<path d="M1713 733 c-18 -7 -16 -40 3 -47 21 -8 34 1 34 24 0 19 -17 30 -37
23z m22 -33 c-5 -8 -11 -8 -17 -2 -6 6 -7 16 -3 22 5 8 11 8 17 2 6 -6 7 -16
3 -22z"/>
<path d="M1383 660 c0 -25 2 -35 4 -22 2 12 2 32 0 45 -2 12 -4 2 -4 -23z"/>
<path d="M584 629 c-3 -6 0 -18 9 -26 18 -18 37 -9 37 18 0 21 -34 27 -46 8z
m36 -15 c0 -9 -5 -14 -12 -12 -18 6 -21 28 -4 28 9 0 16 -7 16 -16z"/>
<path d="M1450 555 c35 -37 46 -44 34 -22 -13 23 -47 57 -58 57 -5 0 5 -16 24
-35z"/>
<path d="M1559 553 l-34 -38 38 34 c20 19 37 36 37 38 0 8 -8 0 -41 -34z"/>
<path d="M1511 538 c-1 -9 -13 -21 -28 -26 -18 -7 -22 -11 -10 -11 25 -1 22
-10 -20 -56 l-38 -40 40 38 c46 42 52 44 58 20 4 -16 5 -15 6 2 1 16 7 13 44
-20 l42 -40 -37 40 c-43 46 -46 55 -20 56 15 0 15 1 -2 8 -11 4 -23 16 -27 27
-6 15 -8 16 -8 2z"/>
<path d="M432 510 c0 -14 2 -19 5 -12 2 6 2 18 0 25 -3 6 -5 1 -5 -13z"/>
<path d="M358 443 c7 -3 16 -2 19 1 4 3 -2 6 -13 5 -11 0 -14 -3 -6 -6z"/>
<path d="M488 443 c6 -2 18 -2 25 0 6 3 1 5 -13 5 -14 0 -19 -2 -12 -5z"/>
<path d="M431 374 c0 -11 3 -14 6 -6 3 7 2 16 -1 19 -3 4 -6 -2 -5 -13z"/>
</g>
</svg>
